/vscmnt/brussel_pixiu_data/_data_brussel/112/vsc11236/PredSimResults/SUBJ04opt3D/weighted-expIG/worker_02.mot
version=1
nRows=6
nColumns=50
inDegrees=yes
endheader
                time	         pelvis_tilt	         pelvis_list	     pelvis_rotation	           pelvis_tx	           pelvis_ty	           pelvis_tz	       hip_flexion_r	     hip_adduction_r	      hip_rotation_r	        knee_angle_r	       ankle_angle_r	         mtp_angle_r	       hip_flexion_l	     hip_adduction_l	      hip_rotation_l	        knee_angle_l	       ankle_angle_l	         mtp_angle_l	    lumbar_extension	      lumbar_bending	     lumbar_rotation	 ercspn_r/activation	 intobl_r/activation	 extobl_r/activation	    abd_r/activation	    add_r/activation	hamstrings_r/activation	bifemsh_r/activation	glut_max_r/activation	iliopsoas_r/activation	rect_fem_r/activation	  vasti_r/activation	gastroc_r/activation	 soleus_r/activation	tib_ant_r/activation	 ercspn_l/activation	 intobl_l/activation	 extobl_l/activation	    abd_l/activation	    add_l/activation	hamstrings_l/activation	bifemsh_l/activation	glut_max_l/activation	iliopsoas_l/activation	rect_fem_l/activation	  vasti_l/activation	gastroc_l/activation	 soleus_l/activation	tib_ant_l/activation	
          1.34740384	         -1.41275166	          0.21146950	          8.46008999	          1.17224134	          0.88506321	         -0.01056458	         27.97670423	         -2.81772126	         -9.93826816	        -10.52379210	          3.89396748	          0.23013482	        -12.06913164	         -0.41607524	         -7.47591219	         -7.06456864	         13.84408990	         18.08789832	        -14.09899396	         -4.08834008	         -7.81162752	          0.04609047	          0.23427495	          0.02299813	          0.01005760	          0.24647246	          0.06768639	          0.01839625	          0.01632100	          0.18414544	          0.04002136	          0.05169932	          0.00999999	          0.00999999	          0.33478562	          0.00999999	          0.00999999	          0.00999999	          0.07821247	          0.00999999	          0.02993159	          0.25900177	          0.01899998	          0.01836317	          0.00999999	          0.00999999	          0.25308946	          0.24364230	          0.01224566	
          1.36087788	         -1.52332579	          0.21232446	          8.26111377	          1.18714625	          0.88273708	         -0.01021504	         27.92720474	         -2.67212350	        -10.12441164	        -11.76402190	          3.70995726	          0.22854800	        -12.72972496	         -0.51354707	         -8.12089048	         -7.54902005	         13.70727128	         19.44790299	        -13.60904084	         -3.48658933	         -7.88992508	          0.03763817	          0.22947721	          0.01878062	          0.00999999	          0.30390487	          0.06886194	          0.01502265	          0.01332797	          0.15037592	          0.03268204	          0.04221844	          0.01499564	          0.01836317	          0.32824030	          0.02504342	          0.00999999	          0.00999999	          0.06386947	          0.00999999	          0.02444258	          0.21150472	          0.01551567	          0.01499564	          0.00999999	          0.00999999	          0.24543991	          0.24963281	          0.00999999	
          1.37435192	         -1.61814203	          0.15774431	          8.02052024	          1.20248743	          0.88053279	         -0.00982158	         27.77157181	         -2.51810947	        -10.17807536	        -13.05160127	          3.47192800	          0.22221164	        -13.36303161	         -0.67300333	         -8.80158648	         -8.15679372	         13.48566175	         20.87367858	        -13.07767003	         -2.79681662	         -7.94397210	          0.03073589	          0.22356126	          0.01533654	          0.01916776	          0.24817327	          0.07223956	          0.01226773	          0.02136616	          0.12279923	          0.02668864	          0.04448193	          0.01224566	          0.01499564	          0.35170052	          0.02299245	          0.00999999	          0.00999999	          0.05215677	          0.00999999	          0.02841349	          0.17271792	          0.01267033	          0.01224566	          0.00999999	          0.00999999	          0.21530362	          0.24678408	          0.00999999	
          1.38782595	         -1.69847524	          0.04474413	          7.72869967	          1.21807027	          0.87862117	         -0.00932873	         27.57009910	         -2.32209924	        -10.32227691	        -14.24201284	          3.07144191	          0.20860519	        -13.90697326	         -0.90387859	         -9.52849050	         -8.97416748	         13.16119039	         22.34923593	        -12.53193702	         -2.02177484	         -7.96412550	          0.02509939	          0.18256347	          0.01252404	          0.02762807	          0.21595274	          0.07764665	          0.01001802	          0.01744793	          0.10027969	          0.02179435	          0.11163988	          0.00999999	          0.01224566	          0.37869031	          0.02551819	          0.00999999	          0.00999999	          0.04259200	          0.00999999	          0.03131265	          0.14104404	          0.01034678	          0.00999999	          0.00999999	          0.00999999	          0.17582016	          0.23590712	          0.00999999	
          1.40129999	         -1.76472666	         -0.11708209	          7.39184415	          1.23377985	          0.87717736	         -0.00872120	         27.31037809	         -2.09002999	        -10.60135437	        -15.35126424	          2.72616253	          0.18759283	        -14.30940966	         -1.20812815	        -10.29203081	        -10.07608123	         12.68792525	         23.87650545	        -11.99053823	         -1.17876070	         -7.94910457	          0.02384648	          0.14908407	          0.01022732	          0.04905970	          0.18978442	          0.07766147	          0.01000001	          0.01424824	          0.08188990	          0.01779759	          0.17802701	          0.00999999	          0.00999999	          0.39394428	          0.03827477	          0.00999999	          0.00999999	          0.03478126	          0.00999999	          0.02631586	          0.11517868	          0.00999999	          0.00999999	          0.00999999	          0.00999999	          0.14357738	          0.21731666	          0.00999999	
          1.41477403	         -1.81754467	         -0.32112404	          7.02155691	          1.24950540	          0.87638810	         -0.00798685	         26.95036252	         -1.81522867	        -10.97862592	        -16.33396873	          2.58580622	          0.16504016	        -14.51173744	         -1.59537547	        -11.08303373	        -11.54391758	         12.00813460	         25.46672854	        -11.46828465	         -0.28408199	         -7.89974070	          0.02927515	          0.12174428	          0.00999999	          0.07634114	          0.16555221	          0.07677937	          0.00999999	          0.02320819	          0.06687252	          0.01453378	          0.21685323	          0.00999999	          0.00999999	          0.39471873	          0.06660135	          0.00999999	          0.00999999	          0.02840290	          0.00999999	          0.04512662	          0.09405663	          0.01485534	          0.00999999	          0.00999999	          0.00999999	          0.11724744	          0.17746404	          0.00999999	
